<mxfile host="Electron" agent="Mozilla/5.0 (Windows NT 10.0; Win64; x64) AppleWebKit/537.36 (KHTML, like Gecko) draw.io/24.7.5 Chrome/126.0.6478.183 Electron/31.3.0 Safari/537.36" version="24.7.5" pages="3">
  <diagram id="jCkeiBc2HjozAaxgLUtg" name="Ins">
    <mxGraphModel dx="880" dy="542" grid="1" gridSize="10" guides="1" tooltips="1" connect="1" arrows="1" fold="1" page="1" pageScale="1" pageWidth="850" pageHeight="1100" math="0" shadow="0">
      <root>
        <mxCell id="0" />
        <mxCell id="1" parent="0" />
        <mxCell id="w4hINgK67mA4IATMhRsm-1" value="&lt;font style=&quot;font-size: 24px;&quot;&gt;Installed the Docker?&lt;/font&gt;" style="rounded=0;whiteSpace=wrap;html=1;fillColor=#d5e8d4;strokeColor=#82b366;" vertex="1" parent="1">
          <mxGeometry x="240" y="190" width="360" height="150" as="geometry" />
        </mxCell>
      </root>
    </mxGraphModel>
  </diagram>
  <diagram name="Container" id="64z1T1UEl5oPtocGVS_x">
    <mxGraphModel dx="2182" dy="576" grid="1" gridSize="10" guides="1" tooltips="1" connect="1" arrows="1" fold="1" page="1" pageScale="1" pageWidth="850" pageHeight="1100" math="0" shadow="0">
      <root>
        <mxCell id="0" />
        <mxCell id="1" parent="0" />
        <mxCell id="rS9uGsRJJ-LU6Z2ELDSN-1" value="&lt;font style=&quot;font-size: 18px;&quot;&gt;docker ps&lt;/font&gt;" style="rounded=0;whiteSpace=wrap;html=1;fillColor=#dae8fc;strokeColor=#6c8ebf;" parent="1" vertex="1">
          <mxGeometry x="-350" y="190" width="120" height="60" as="geometry" />
        </mxCell>
        <mxCell id="rS9uGsRJJ-LU6Z2ELDSN-2" value="&lt;font style=&quot;font-size: 18px;&quot;&gt;docker stop &amp;lt;container id&amp;gt;&lt;/font&gt;" style="rounded=0;whiteSpace=wrap;html=1;fillColor=#dae8fc;strokeColor=#6c8ebf;" parent="1" vertex="1">
          <mxGeometry x="-350" y="330" width="260" height="60" as="geometry" />
        </mxCell>
        <mxCell id="rS9uGsRJJ-LU6Z2ELDSN-3" value="&lt;font style=&quot;font-size: 18px;&quot;&gt;docker run &amp;lt;image name&amp;gt;&lt;/font&gt;" style="rounded=0;whiteSpace=wrap;html=1;fillColor=#dae8fc;strokeColor=#6c8ebf;" parent="1" vertex="1">
          <mxGeometry x="-350" y="120" width="260" height="60" as="geometry" />
        </mxCell>
        <mxCell id="rS9uGsRJJ-LU6Z2ELDSN-4" value="&lt;font style=&quot;font-size: 18px;&quot;&gt;docker ps -a&lt;/font&gt;" style="rounded=0;whiteSpace=wrap;html=1;fillColor=#dae8fc;strokeColor=#6c8ebf;" parent="1" vertex="1">
          <mxGeometry x="-350" y="260" width="120" height="60" as="geometry" />
        </mxCell>
        <mxCell id="rS9uGsRJJ-LU6Z2ELDSN-5" value="" style="shape=curlyBracket;whiteSpace=wrap;html=1;rounded=1;flipH=1;labelPosition=right;verticalLabelPosition=middle;align=left;verticalAlign=middle;" parent="1" vertex="1">
          <mxGeometry x="-220" y="190" width="30" height="60" as="geometry" />
        </mxCell>
        <mxCell id="rS9uGsRJJ-LU6Z2ELDSN-6" value="&lt;font style=&quot;font-size: 20px;&quot;&gt;List running containers&lt;/font&gt;" style="text;html=1;align=center;verticalAlign=middle;resizable=0;points=[];autosize=1;strokeColor=none;fillColor=none;" parent="1" vertex="1">
          <mxGeometry x="-195" y="200" width="220" height="40" as="geometry" />
        </mxCell>
        <mxCell id="rS9uGsRJJ-LU6Z2ELDSN-8" value="" style="shape=curlyBracket;whiteSpace=wrap;html=1;rounded=1;flipH=1;labelPosition=right;verticalLabelPosition=middle;align=left;verticalAlign=middle;" parent="1" vertex="1">
          <mxGeometry x="-220" y="260" width="30" height="60" as="geometry" />
        </mxCell>
        <mxCell id="rS9uGsRJJ-LU6Z2ELDSN-9" value="&lt;font style=&quot;font-size: 20px;&quot;&gt;List all containers (including stopped ones)&lt;/font&gt;" style="text;whiteSpace=wrap;html=1;fontFamily=Helvetica;fontSize=12;fontColor=default;autosize=1;resizable=0;" parent="1" vertex="1">
          <mxGeometry x="-190" y="270" width="400" height="40" as="geometry" />
        </mxCell>
        <mxCell id="rS9uGsRJJ-LU6Z2ELDSN-10" value="" style="shape=curlyBracket;whiteSpace=wrap;html=1;rounded=1;flipH=1;labelPosition=right;verticalLabelPosition=middle;align=left;verticalAlign=middle;" parent="1" vertex="1">
          <mxGeometry x="-80" y="120" width="30" height="60" as="geometry" />
        </mxCell>
        <mxCell id="rS9uGsRJJ-LU6Z2ELDSN-11" value="&lt;font style=&quot;font-size: 20px;&quot;&gt;Start a container from an image&lt;/font&gt;" style="text;html=1;align=center;verticalAlign=middle;resizable=0;points=[];autosize=1;strokeColor=none;fillColor=none;" parent="1" vertex="1">
          <mxGeometry x="-60" y="130" width="300" height="40" as="geometry" />
        </mxCell>
        <mxCell id="rS9uGsRJJ-LU6Z2ELDSN-12" value="" style="shape=curlyBracket;whiteSpace=wrap;html=1;rounded=1;flipH=1;labelPosition=right;verticalLabelPosition=middle;align=left;verticalAlign=middle;" parent="1" vertex="1">
          <mxGeometry x="-80" y="330" width="30" height="60" as="geometry" />
        </mxCell>
        <mxCell id="rS9uGsRJJ-LU6Z2ELDSN-13" value="&lt;font style=&quot;font-size: 20px;&quot;&gt;Stop a running container&lt;/font&gt;" style="text;whiteSpace=wrap;html=1;fontFamily=Helvetica;fontSize=12;fontColor=default;autosize=1;resizable=0;" parent="1" vertex="1">
          <mxGeometry x="-50" y="340" width="240" height="40" as="geometry" />
        </mxCell>
        <mxCell id="rS9uGsRJJ-LU6Z2ELDSN-14" value="&lt;font style=&quot;font-size: 18px;&quot;&gt;docker rm &amp;lt;container id&amp;gt;&lt;/font&gt;" style="rounded=0;whiteSpace=wrap;html=1;fillColor=#dae8fc;strokeColor=#6c8ebf;" parent="1" vertex="1">
          <mxGeometry x="-350" y="400" width="260" height="60" as="geometry" />
        </mxCell>
        <mxCell id="rS9uGsRJJ-LU6Z2ELDSN-15" value="" style="shape=curlyBracket;whiteSpace=wrap;html=1;rounded=1;flipH=1;labelPosition=right;verticalLabelPosition=middle;align=left;verticalAlign=middle;" parent="1" vertex="1">
          <mxGeometry x="-80" y="400" width="30" height="60" as="geometry" />
        </mxCell>
        <mxCell id="rS9uGsRJJ-LU6Z2ELDSN-16" value="&lt;font style=&quot;font-size: 20px;&quot;&gt;Remove a stopped container&lt;/font&gt;" style="text;whiteSpace=wrap;html=1;fontFamily=Helvetica;fontSize=12;fontColor=default;autosize=1;resizable=0;" parent="1" vertex="1">
          <mxGeometry x="-50" y="410" width="280" height="40" as="geometry" />
        </mxCell>
        <mxCell id="rS9uGsRJJ-LU6Z2ELDSN-17" value="&lt;font style=&quot;font-size: 18px;&quot;&gt;docker log &amp;lt;container id&amp;gt;&lt;/font&gt;" style="rounded=0;whiteSpace=wrap;html=1;fillColor=#dae8fc;strokeColor=#6c8ebf;" parent="1" vertex="1">
          <mxGeometry x="-350" y="470" width="260" height="60" as="geometry" />
        </mxCell>
        <mxCell id="rS9uGsRJJ-LU6Z2ELDSN-18" value="" style="shape=curlyBracket;whiteSpace=wrap;html=1;rounded=1;flipH=1;labelPosition=right;verticalLabelPosition=middle;align=left;verticalAlign=middle;" parent="1" vertex="1">
          <mxGeometry x="-80" y="470" width="30" height="60" as="geometry" />
        </mxCell>
        <mxCell id="rS9uGsRJJ-LU6Z2ELDSN-19" value="&lt;font style=&quot;font-size: 20px;&quot;&gt;View Container logs&lt;/font&gt;" style="text;whiteSpace=wrap;html=1;fontFamily=Helvetica;fontSize=12;fontColor=default;autosize=1;resizable=0;" parent="1" vertex="1">
          <mxGeometry x="-50" y="480" width="200" height="40" as="geometry" />
        </mxCell>
      </root>
    </mxGraphModel>
  </diagram>
  <diagram name="Image" id="zziRlL-hr1sLZLW9NC3d">
    <mxGraphModel dx="1960" dy="1580" grid="1" gridSize="10" guides="1" tooltips="1" connect="1" arrows="1" fold="1" page="1" pageScale="1" pageWidth="850" pageHeight="1100" math="0" shadow="0">
      <root>
        <mxCell id="WFoIDruslKqFSYyBvN_B-0" />
        <mxCell id="WFoIDruslKqFSYyBvN_B-1" parent="WFoIDruslKqFSYyBvN_B-0" />
        <mxCell id="WFoIDruslKqFSYyBvN_B-2" value="&lt;font style=&quot;font-size: 18px;&quot;&gt;docker images&amp;nbsp;&lt;/font&gt;" style="rounded=0;whiteSpace=wrap;html=1;fillColor=#dae8fc;strokeColor=#6c8ebf;" parent="WFoIDruslKqFSYyBvN_B-1" vertex="1">
          <mxGeometry x="-370" y="-150" width="140" height="60" as="geometry" />
        </mxCell>
        <mxCell id="WFoIDruslKqFSYyBvN_B-4" value="&lt;font style=&quot;font-size: 18px;&quot;&gt;docker pull &amp;lt;image name&amp;gt;&lt;/font&gt;" style="rounded=0;whiteSpace=wrap;html=1;fillColor=#dae8fc;strokeColor=#6c8ebf;" parent="WFoIDruslKqFSYyBvN_B-1" vertex="1">
          <mxGeometry x="-370" y="-220" width="260" height="60" as="geometry" />
        </mxCell>
        <mxCell id="WFoIDruslKqFSYyBvN_B-6" value="" style="shape=curlyBracket;whiteSpace=wrap;html=1;rounded=1;flipH=1;labelPosition=right;verticalLabelPosition=middle;align=left;verticalAlign=middle;" parent="WFoIDruslKqFSYyBvN_B-1" vertex="1">
          <mxGeometry x="-220" y="-150" width="30" height="60" as="geometry" />
        </mxCell>
        <mxCell id="WFoIDruslKqFSYyBvN_B-7" value="&lt;font style=&quot;font-size: 20px;&quot;&gt;List the Images&lt;/font&gt;" style="text;html=1;align=center;verticalAlign=middle;resizable=0;points=[];autosize=1;strokeColor=none;fillColor=none;" parent="WFoIDruslKqFSYyBvN_B-1" vertex="1">
          <mxGeometry x="-200" y="-140" width="160" height="40" as="geometry" />
        </mxCell>
        <mxCell id="WFoIDruslKqFSYyBvN_B-10" value="" style="shape=curlyBracket;whiteSpace=wrap;html=1;rounded=1;flipH=1;labelPosition=right;verticalLabelPosition=middle;align=left;verticalAlign=middle;" parent="WFoIDruslKqFSYyBvN_B-1" vertex="1">
          <mxGeometry x="-100" y="-220" width="30" height="60" as="geometry" />
        </mxCell>
        <mxCell id="WFoIDruslKqFSYyBvN_B-11" value="&lt;font style=&quot;font-size: 20px;&quot;&gt;Download an Image from DockerHub&lt;/font&gt;" style="text;html=1;align=center;verticalAlign=middle;resizable=0;points=[];autosize=1;strokeColor=none;fillColor=none;" parent="WFoIDruslKqFSYyBvN_B-1" vertex="1">
          <mxGeometry x="-80" y="-210" width="350" height="40" as="geometry" />
        </mxCell>
        <mxCell id="WFoIDruslKqFSYyBvN_B-14" value="&lt;font style=&quot;font-size: 18px;&quot;&gt;docker rm &amp;lt;image id&amp;gt;&lt;/font&gt;" style="rounded=0;whiteSpace=wrap;html=1;fillColor=#dae8fc;strokeColor=#6c8ebf;" parent="WFoIDruslKqFSYyBvN_B-1" vertex="1">
          <mxGeometry x="-370" y="-80" width="260" height="60" as="geometry" />
        </mxCell>
        <mxCell id="WFoIDruslKqFSYyBvN_B-15" value="" style="shape=curlyBracket;whiteSpace=wrap;html=1;rounded=1;flipH=1;labelPosition=right;verticalLabelPosition=middle;align=left;verticalAlign=middle;" parent="WFoIDruslKqFSYyBvN_B-1" vertex="1">
          <mxGeometry x="-100" y="-80" width="30" height="60" as="geometry" />
        </mxCell>
        <mxCell id="WFoIDruslKqFSYyBvN_B-16" value="&lt;font style=&quot;font-size: 20px;&quot;&gt;Remove an Image&lt;/font&gt;" style="text;whiteSpace=wrap;html=1;fontFamily=Helvetica;fontSize=12;fontColor=default;autosize=1;resizable=0;" parent="WFoIDruslKqFSYyBvN_B-1" vertex="1">
          <mxGeometry x="-70" y="-70" width="190" height="40" as="geometry" />
        </mxCell>
        <mxCell id="WFoIDruslKqFSYyBvN_B-17" value="&lt;font style=&quot;font-size: 18px;&quot;&gt;docker build -t &amp;lt;image name&amp;gt; .&lt;/font&gt;" style="rounded=0;whiteSpace=wrap;html=1;fillColor=#dae8fc;strokeColor=#6c8ebf;" parent="WFoIDruslKqFSYyBvN_B-1" vertex="1">
          <mxGeometry x="-370" y="-10" width="260" height="60" as="geometry" />
        </mxCell>
        <mxCell id="WFoIDruslKqFSYyBvN_B-18" value="" style="shape=curlyBracket;whiteSpace=wrap;html=1;rounded=1;flipH=1;labelPosition=right;verticalLabelPosition=middle;align=left;verticalAlign=middle;" parent="WFoIDruslKqFSYyBvN_B-1" vertex="1">
          <mxGeometry x="-100" y="-10" width="30" height="60" as="geometry" />
        </mxCell>
        <mxCell id="WFoIDruslKqFSYyBvN_B-19" value="&lt;font style=&quot;font-size: 20px;&quot;&gt;Build an Image from Dockerfile&lt;/font&gt;" style="text;whiteSpace=wrap;html=1;fontFamily=Helvetica;fontSize=12;fontColor=default;autosize=1;resizable=0;" parent="WFoIDruslKqFSYyBvN_B-1" vertex="1">
          <mxGeometry x="-70" width="300" height="40" as="geometry" />
        </mxCell>
      </root>
    </mxGraphModel>
  </diagram>
</mxfile>
